C:\GBW_MyPrograms\KinderuniversiteitApp\Resultaten\TymenKool\Model2_v1.mot
version=1
nRows=12
nColumns=31
inDegrees=yes
endheader
                time	         pelvis_tilt	           pelvis_tx	           pelvis_ty	       hip_flexion_r	        knee_angle_r	       ankle_angle_r	       hip_flexion_l	        knee_angle_l	       ankle_angle_l	    lumbar_extension	          arm_flex_r	          arm_flex_l	hamstrings_r/activation	bifemsh_r/activation	glut_max_r/activation	iliopsoas_r/activation	rect_fem_r/activation	  vasti_r/activation	gastroc_r/activation	 soleus_r/activation	tib_ant_r/activation	hamstrings_l/activation	bifemsh_l/activation	glut_max_l/activation	iliopsoas_l/activation	rect_fem_l/activation	  vasti_l/activation	gastroc_l/activation	 soleus_l/activation	tib_ant_l/activation	
          0.72541564	        -11.61310211	          0.89745279	          0.93651570	        -20.23180283	         -1.42543148	        -27.90822271	         19.60918179	          2.95497718	        -63.13868751	        -12.47013477	        -24.08088742	        -24.08082783	          0.77644495	          0.66785118	          0.32012796	          0.59671078	          0.40460071	          0.24279006	          0.45633178	          0.45481372	          0.29435775	          0.14221021	          0.24789163	          0.65399759	          0.46988427	          0.84638584	          0.78391362	          0.76244528	          0.19366564	          0.07124089	
          0.73992396	        -11.60432447	          0.90874140	          0.92313163	        -13.36296809	         -8.67167469	        -28.34800061	         18.01994555	          3.54029544	        -61.73314311	        -13.85435055	        -21.99967247	        -21.99961495	          0.81129358	          0.64181432	          0.61468103	          0.51271026	          0.34321890	          0.22462456	          0.47224923	          0.54306738	          0.25278338	          0.12029162	          0.21314927	          0.54178962	          0.40174269	          0.89585389	          0.82901207	          0.80362807	          0.18020090	          0.06111987	
          0.75443227	        -11.70892607	          0.92054626	          0.91248356	         -6.44449607	        -16.53991439	        -29.33645527	         15.52840379	          4.77352805	        -58.66602410	        -14.89364295	        -20.56252409	        -20.56246875	          0.89852002	          0.64990297	          0.80143454	          0.42373735	          0.28047358	          0.21012620	          0.46804198	          0.48858856	          0.26236668	          0.14128873	          0.48252924	          0.45106484	          0.68623799	          0.73366533	          0.69788620	          0.77197225	          0.19977466	          0.07154855	
          0.76894058	        -11.86729351	          0.93371444	          0.90504478	         -0.85898981	        -22.75831697	        -29.38494255	         12.56467925	          5.28000643	        -53.38252510	        -15.47987883	        -19.78715028	        -19.78709742	          0.89943589	          0.67044207	          0.85756227	          0.37350884	          0.24127044	          0.17909581	          0.46828801	          0.45855755	          0.24857179	          0.15219796	          0.55093417	          0.37728875	          0.79281390	          0.60461351	          0.60172915	          0.76699047	          0.20714016	          0.06675118	
          0.78344889	        -11.82617496	          0.94932163	          0.89931081	          2.65717527	        -27.14039352	        -28.96393457	          9.16763751	          4.14250251	        -45.28741671	        -15.71776139	        -19.69197213	        -19.69192205	          0.77649780	          0.64185065	          0.71546803	          0.34293992	          0.24274067	          0.16554464	          0.46579770	          0.42866299	          0.24107708	          0.16256176	          0.53447373	          0.32227617	          0.69512704	          0.49850744	          0.53800291	          0.73634056	          0.19939222	          0.05240708	
          0.79795721	        -11.56575385	          0.96747583	          0.89307594	          4.39909549	        -30.43126311	        -28.94840451	          5.51243232	          1.32866836	        -36.13627916	        -15.64375248	        -20.29003294	        -20.28998594	          0.63209355	          0.58055775	          0.58976722	          0.45145002	          0.47771457	          0.22725960	          0.46070927	          0.39710774	          0.23580977	          0.20773570	          0.50168342	          0.29959082	          0.57431057	          0.40985950	          0.49499691	          0.64317783	          0.17859313	          0.49912887	
          0.81246552	        -11.12815023	          0.98745420	          0.88527651	          4.69172487	        -32.31315857	        -29.67328854	          2.04002317	         -3.35056026	        -28.17150616	        -15.43764833	        -21.56758360	        -21.56753994	          0.51207418	          0.52581758	          0.47842555	          0.64171613	          0.66481268	          0.25911871	          0.45720654	          0.37086813	          0.23074099	          0.45188046	          0.65898425	          0.26158241	          0.46574421	          0.33570177	          0.43123965	          0.53377944	          0.15137087	          0.73684132	
          0.82697383	        -10.61507236	          1.00776610	          0.87628255	          4.29588312	        -32.94360055	        -30.96751301	         -1.01893963	         -8.91348832	        -24.12943352	        -15.37083981	        -23.35283074	        -23.35278977	          0.41733917	          0.47021279	          0.39048390	          0.63774404	          0.71714418	          0.25218067	          0.45180694	          0.34213205	          0.20401226	          0.63582018	          0.68274884	          0.26390369	          0.37655492	          0.27188631	          0.38488020	          0.45608887	          0.13221719	          0.71979554	
          0.84148215	        -10.24752717	          1.02726970	          0.86646790	          3.96272322	        -32.52200492	        -33.91289001	         -3.71750132	        -14.50956094	        -20.31670258	        -15.42188916	        -25.06580433	        -25.06576443	          0.35370234	          0.43594319	          0.31690897	          0.53048981	          0.62168685	          0.57941069	          0.48331825	          0.34822907	          0.16680435	          0.81166368	          0.67573898	          0.34020203	          0.30446348	          0.22012357	          0.32778912	          0.42111444	          0.11350581	          0.67769537	
          0.85599046	        -10.02040376	          1.04631827	          0.85659357	          3.59737525	        -30.85716718	        -35.44067576	         -6.66891078	        -18.64542983	        -18.93487780	        -15.51310135	        -26.17206019	        -26.17202150	          0.56498681	          0.36699663	          0.25584123	          0.46077564	          0.54259614	          0.68097855	          0.61353936	          0.54009725	          0.13695458	          0.89936251	          0.63676704	          0.66255212	          0.24634559	          0.17885461	          0.28907440	          0.42317274	          0.29187775	          0.56439636	
          0.87049877	         -9.86896038	          1.06539351	          0.84854762	          3.96359095	        -29.39361813	        -32.29538691	        -10.62756250	        -19.86373813	        -18.25615065	        -15.66263859	        -26.67608553	        -26.67604957	          0.45645337	          0.65502608	          0.61193940	          0.44272680	          0.50934170	          0.80647059	          0.52964312	          0.44099254	          0.12368470	          0.93672160	          0.62657973	          0.82446961	          0.20003906	          0.14614136	          0.46556836	          0.40902304	          0.24913978	          0.55949084	
          0.88500708	         -9.96652836	          1.08678806	          0.84323405	          5.06795601	        -29.22368029	        -30.43141935	        -14.82821724	        -19.63627693	        -17.92004428	        -15.10022848	        -27.89967427	        -27.89963715	          0.71651251	          0.80563984	          0.53431279	          0.57078882	          0.41516907	          0.65102499	          0.43540887	          0.35777641	          0.54834463	          0.95195437	          0.53250912	          0.88791488	          0.16285251	          0.12112735	          0.38534850	          0.40005096	          0.24579984	          0.52297722	
